<?xml version="1.0" encoding="UTF-8"?>
<svg id="logosandtypes_com" data-name="logosandtypes com" xmlns="http://www.w3.org/2000/svg" viewBox="0 0 150 150">
  <defs>
    <style>
      .cls-1 {
        fill: none;
      }

      .cls-2 {
        fill: #ff5000;
      }
    </style>
  </defs>
  <path class="cls-1" d="M0,0H150V150H0V0Z"/>
  <path class="cls-2" d="M110.88,49.59c2.85-2.29,31.78-25.44,34.69-27.96-11.37,.01-22.8-.12-34.17-.11-3.88-.14-7.24,1.86-10.12,4.26-5.89,4.69-33.72,27.07-41.91,33.26,0,0,.01,0,.01,0,0,0,0,0,0,0,0,0,0,0-.01,0,0,0-.01,0-.01,0,0,0,0,0,.01,0,4.07-12.43,8.11-24.9,12.23-37.48-8.38-.14-16.68,0-25.05-.01-2.51,.01-4.89,1.76-5.72,4.14-3.62,10.72-27.35,82.9-35.67,108.23,14.67-11.54,56.51-45.54,63.5-49.96,6.43-3.96,11.11-2.93,14.96,3.63,1.78,3.19,3.46,6.43,5.17,9.66,3.87,7.51,6.31,14.27,16.07,14.53,8.82-.02,17.61,.12,26.43-.06-6.94-13.26-24-43.9-25.12-46.2-2.99-5.83-.23-12.2,4.72-15.92Z"/>
</svg>